<svg width="597" height="597" viewBox="0 0 597 597" fill="none" xmlns="http://www.w3.org/2000/svg">
<path d="M277 1.09998C177 8.19998 86.1 66.6 37.5 154.9C20 186.6 9.2 219.6 3.3 258.6C1.1 273.7 0.799997 319.4 2.8 334C11.4 395 33.1 444.6 71.1 490C89.2 511.6 111.3 531.2 135.5 547.2C218.2 601.9 325.8 611.1 417 571.3C459.8 552.7 497 524.7 527.4 488.4C562.7 446.2 584.5 397.1 593.5 340C595.8 325.7 596.6 286.9 595.1 270.3C587 183.8 541.3 105.3 469.5 54.3C414.5 15.3 345.5 -3.80002 277 1.09998ZM182 216.5L230.5 266.9L239.8 267H249V273V279H277.1H305.3L347.4 286C370.5 289.9 393.1 293.7 397.5 294.5C401.9 295.3 407.9 296.3 410.8 296.6C417.8 297.5 418.2 298.6 411.7 299.4C408.9 299.7 402.9 300.7 398.5 301.5C390.7 302.9 332.5 312.7 326.5 313.6C324.9 313.9 319.9 314.7 315.4 315.5C309.6 316.6 299.4 317 278.2 317H249.1L248.8 323.2C248.5 330.3 249.5 329.7 237.3 329.9L230.1 330L181.8 380.1L133.5 430.2L133.2 379.1L133 327.9L123.3 328.2L113.7 328.5L104.7 342.7L95.8 357H80.9H66V342.5V328H60H54V298V268H60H66V253.5V239H80.8H95.6L104.6 253.2L113.6 267.5L123.3 267.8L133 268.1V217C133 189 133.1 166 133.3 166C133.4 166 155.4 188.7 182 216.5ZM410.5 182C467.4 186.1 515.2 204.3 546 233.7C561.7 248.6 571.1 263.7 575.1 280.6C578.1 293.4 577.5 310 573.5 321.9C560.5 360.2 516.4 392.9 458.8 406.9C429.7 414 399.1 416.4 370.5 414C346.1 411.9 324.4 407.5 303.9 400.5C289.5 395.6 265.4 383.4 254.1 375.3C243.7 367.9 229.7 354.6 225.5 348.1L222.7 344L225.4 340.5C226.9 338.6 228.2 337 228.4 337C228.6 337 230.5 339.4 232.7 342.3C241.4 353.7 254.9 365.6 269.3 374.2L277.1 378.9L286.1 371.7C300.7 360 318 351.1 337.8 345.2L344.1 343.4L340 338.4C335.9 333.5 329 320.9 329 318.4C329 317.6 329.8 317 330.8 317C332 317 333.1 318.5 334.2 321.5C336.3 327 341.8 335.5 345.8 339.3L348.8 342.2L358.2 340.6C363.3 339.7 372.8 338.6 379.3 338.3L391 337.7V322.5C391 309.8 391.3 307.1 392.5 306.6C393.8 306.1 394 308.2 394 322V338H399.9C406.1 338 425.7 340.4 432.3 341.9C435.9 342.8 436.1 342.7 440.5 337.7C448.5 328.5 455 313.3 455 303.6V300L444.3 299.9C437.2 299.8 434.7 299.5 437 299C440.5 298.4 440 297.7 435.5 296.7C434.4 296.4 438.3 296.2 444.3 296.1L455 296V292.2C455 283 448.2 267 440.7 258.6L436.4 253.7L425.9 255.4C420.2 256.4 410.7 257.5 404.8 257.7L394 258.3V274.2C394 286.5 393.7 290.1 392.8 289.8C391.9 289.5 391.4 285 391 273.9L390.5 258.5L378.5 257.9C371.9 257.5 362.5 256.5 357.5 255.6L348.5 253.9L344.3 258.5C341.9 261.1 338.3 266.7 336.3 271C333.7 276.3 331.9 278.9 330.8 278.9C329.8 279 329 278.5 329 277.9C329 275.4 335.5 263.5 339.6 258.4C342.4 255 343.6 252.8 342.8 252.6C317.8 245.6 295.7 234.4 282.5 221.9L277.3 217L268.5 222.5C253.8 231.8 240.1 243.9 231.5 255.3L228.7 259.1L225.7 256.2C223.4 253.9 222.9 252.7 223.5 250.9C224.8 246.9 247.7 224.9 257.1 218.8C288.9 197.9 328.4 185.2 371.5 182.1C388.7 180.9 394.8 180.9 410.5 182ZM50 297V331.9L55.8 332.2L61.5 332.5L61.8 346.7L62.1 361H80.3L98.5 360.9L107.5 346.5L116.4 332H122.2H128V386.5C128 416.5 128.3 441 128.8 440.9C129.4 440.8 167.4 401.6 204.7 362.3L216.9 349.6L219.1 352.5C224 358.9 237.9 372.5 245.1 378C272.4 398.9 309 413.2 352.3 419.8C368.3 422.2 416.7 422.2 432.7 419.8C484.4 411.9 525.9 393.3 553.5 365.6C572.3 346.8 580.6 331.3 584.5 307.7C584.9 305.4 585.6 304 586.5 304C588.5 304 588.5 315.5 586.5 332C578.5 397.4 550.6 455.2 504.5 501.5C486.3 519.9 469 533.6 448.3 546.2C413.6 567.3 374.1 580.9 332 586.2C316.6 588.1 276.7 587.8 261.1 585.7C218.8 579.8 181.6 566.5 146.6 544.7C117.2 526.4 93.2 505.1 72.2 478.7C36.2 433.3 15.5 382.2 9.9 325C8.8 312.9 9.3 265 10.6 262.9C10.9 262.4 19.9 262 30.6 262H50V297Z" fill="#008AD1"/>
<path d="M174.8 239C174.4 240.4 173.4 248.7 172.5 257.5C170.2 280.5 170.3 280 166.9 280C164.7 280 164 280.5 164 282C164 283.9 164.7 284 175.5 284C181.8 284 187 283.8 187 283.6C187 281.5 185.3 280 183 280C180.3 280 180.2 279.8 179.5 273.4C179.1 269.8 179.1 266.6 179.4 266.3C180.6 265.1 187.7 268.1 191.6 271.4C193.8 273.3 196.5 276.4 197.5 278.5L199.5 282.1L207.5 281.5C211.9 281.1 215.7 280.6 215.9 280.4C216.8 279.5 212.1 271.3 208.1 266.8C202.7 260.7 196 256.4 188.2 254C179.8 251.4 178 251.4 177.9 254.2C177.8 255.5 177.2 252 176.6 246.5C175.8 239.9 175.2 237.4 174.8 239ZM192.8 258.5C199.4 261.6 203.4 264.8 208.3 271.2C213.4 278.1 213.2 279 206.6 279C201.3 279 201.1 278.9 197.7 274.1C195.1 270.5 192.6 268.5 188.2 266.4C182.2 263.5 181 262 181 257.1C181 255 181.3 254.8 184.2 255.4C185.9 255.7 189.8 257.1 192.8 258.5ZM178.7 263.2C178.5 264.5 178.3 263.5 178.3 261C178.3 258.5 178.5 257.5 178.7 258.7C178.9 260 178.9 262 178.7 263.2Z" fill="#008AD1"/>
<path d="M164.7 253.1C153.6 255.7 142 265.2 136.5 276.3C134.6 280.1 133 283.9 133 284.6C133 285.7 130.9 286 123.8 286H114.6L125.1 296.8L135.5 307.5L139 304.9C149.2 297.3 169.1 290.4 192 286.7C193.4 286.5 184.5 286.2 172.3 286.1C157.7 286 150 285.6 150 285C150 283 154.8 274.5 157.2 272.4C160.1 269.6 167 266 169.1 266C170.3 266 170.9 264.7 171.4 260.7C172.5 251.1 172.6 251.2 164.7 253.1ZM169 259C169 262.7 168.8 263 164.3 265C158 267.8 152.3 273.3 149.4 279.5C145.4 287.9 145.4 287.9 158.3 288.2L169.5 288.5L161 291.4C151.2 294.7 144 298.1 139.1 301.8L135.6 304.4L128.3 296.4L121 288.5L127.9 288.2L134.8 287.9L136.5 282.9C140.5 270.4 149.6 261.4 162.9 256.5C168.5 254.4 169 254.6 169 259Z" fill="#008AD1"/>
<path d="M212 290.5C205.4 297.6 180.3 306.3 156.5 309.9C151.9 310.5 156.5 310.8 175.3 310.9C191.6 311 200 311.4 200 312C200 314.4 195.9 320.9 192.3 324.1C188.9 327.2 186.3 328.6 180.8 330.4C179.5 330.8 179 332.1 178.9 335.2C178.9 337.6 178.6 338.9 178.3 338.2C178 337.5 178.3 332.4 179 326.9L180.2 317H183.1C184.7 317 186 316.6 186 316.1C186 315.6 186.3 314.5 186.6 313.6C187.1 312.2 185.7 312 175.1 312H163.1L163.9 314.2C164.4 315.6 165.7 316.6 167.3 316.8C170.2 317.2 170.6 318.4 171.4 329.5C171.7 333.3 171.6 335.2 171.2 333.6C170.7 331.3 169.6 330.4 166.5 329.3C161.1 327.5 155.4 322.7 152.9 317.9L150.9 314L142.7 314.6C138.2 315 134.3 315.4 134.1 315.6C134 315.7 134.9 318 136.1 320.7C141.5 331.5 155.7 342 167.3 343.6L172 344.3L172.1 340.9C172.2 339 172.8 342.3 173.5 348.3C174.1 354.2 174.9 359.3 175.2 359.6C175.6 359.9 176.2 355.7 176.6 350.3C177 344.9 177.6 341.3 177.8 342.4C178.9 347.3 197 340.2 205.8 331.4C210.5 326.6 217 315.6 217 312.3C217 311.4 219.9 311 226.4 310.8L235.8 310.5L225 299.3L214.2 288.1L212 290.5Z" fill="#008AD1"/>
<path d="M186.1 293.1C175.3 294.3 154.3 298.5 149 300.6C140.1 304.2 149 305 168.7 302.5C188.6 299.9 207.8 294.8 204.8 292.9C203.2 291.9 197.5 292 186.1 293.1Z" fill="#008AD1"/>
<path d="M367 191.7C338.5 194.6 310.5 201.8 288.8 211.7C281.1 215.2 281 215.3 282.7 217.3C285.5 220.5 299.2 230.4 306.1 234.3C314.6 239 327.7 244.3 338.4 247.4L347.1 250L353 245.6C361.1 239.6 372.4 235.1 382.6 233.7L391 232.6V211.8V191L380.8 191.2C375.1 191.2 368.9 191.5 367 191.7Z" fill="#008AD1"/>
<path d="M394 212V233H397.1C401.8 233 413.9 236 419.9 238.6C422.8 239.9 428 242.9 431.3 245.1L437.4 249.3L444.9 247.1C466.2 240.9 488.6 228.6 499.3 217.2L502.1 214.2L491.3 209.7C465 198.6 429 191 402.8 191H394V212Z" fill="#008AD1"/>
<path d="M500.5 221.6C488.3 232.5 469.6 242.9 451.4 248.9L440.3 252.6L444.2 256.9C451.3 264.9 459 283.6 459 292.7V296H513.5H568V293.2C568 289 564.4 275.4 561.6 269.4C556 257.1 542.8 241.5 529.6 231.6C521.9 225.8 507.8 217 506.4 217C505.9 217.1 503.3 219.1 500.5 221.6Z" fill="#008AD1"/>
<path d="M375.5 238.9C367.2 241.3 363.1 243.2 357 247.3L351.8 250.8L354.7 251.4C359.8 252.5 371.3 253.8 381.3 254.5L391 255.2V246.1V237L386.3 237.1C383.6 237.1 378.8 237.9 375.5 238.9Z" fill="#008AD1"/>
<path d="M394 245.9V255.1L402.3 254.5C411.3 253.8 431.3 251.1 431.9 250.5C432.1 250.3 429.6 248.4 426.4 246.4C419 241.6 408.8 238.1 400.5 237.3L394 236.7V245.9Z" fill="#008AD1"/>
<path d="M459 303.2C458.9 313.3 452.2 330 444.6 338.5L440.3 343.5L450.4 346.8C469.6 353 488.6 363.5 500.8 374.5C507.1 380.1 506.2 380.3 521.5 370.3C534.8 361.5 551.8 344.5 557.8 333.8C563 324.6 566.6 314.3 567.6 306.1L568.3 300H513.6H459V303.2Z" fill="#008AD1"/>
<path d="M378.5 342.1C372.4 342.5 363.9 343.4 359.6 344L351.8 345.3L354.1 347.2C361 352.6 375 357.8 386.8 359.4L391 360V351.1C391 346.1 390.7 342 390.3 341.8C389.8 341.6 384.5 341.7 378.5 342.1Z" fill="#008AD1"/>
<path d="M394 350.6V359.8L398.8 359.3C409.3 358.3 429.5 350.2 430.7 346.4C431.2 345 418.9 342.9 404.8 342.1L394 341.5V350.6Z" fill="#008AD1"/>
<path d="M336.5 349.5C321.1 354 306.5 361.2 293.5 370.5C287.4 374.9 281.3 380.7 282.1 381.4C283.2 382.5 304.6 391.1 312 393.5C329.5 399 351.7 403.3 369 404.5C373.7 404.8 380.5 405.3 384.3 405.6L391 406.1V384.6V363H386.7C377.6 363 360.2 356.5 352 350C347.5 346.4 346.8 346.4 336.5 349.5Z" fill="#008AD1"/>
<path d="M432.5 350.2C423.5 357 407.2 363 397.8 363H394V384.5V405.9L402.8 405.4C430.2 403.8 454.2 399.6 474.2 392.9C487.2 388.6 502 382.2 502 381C502 379.9 489.4 369.8 482.5 365.5C479.3 363.4 472.5 359.8 467.5 357.4C458.8 353.4 440.3 346.9 437.7 347.1C437.1 347.1 434.7 348.5 432.5 350.2Z" fill="#008AD1"/>
<path d="M13 271C13 272.9 13.7 273 28.5 273C43.3 273 44 272.9 44 271C44 269.1 43.3 269 28.5 269C13.7 269 13 269.1 13 271Z" fill="#008AD1"/>
<path d="M13 285.5V288H28.5H44V285.5V283H28.5H13V285.5Z" fill="#008AD1"/>
<path d="M13 300.5V303H28.5H44V300.5V298H28.5H13V300.5Z" fill="#008AD1"/>
<path d="M13 315C13 316.9 13.7 317 28.5 317C43.3 317 44 316.9 44 315C44 313.1 43.3 313 28.5 313C13.7 313 13 313.1 13 315Z" fill="#008AD1"/>
<path d="M13 329.5V332H28.5H44V329.5V327H28.5H13V329.5Z" fill="#008AD1"/>
</svg>
